<svg xmlns="http://www.w3.org/2000/svg" viewBox="0 0 33.75 31.5"><path d="M29.35 6.3c1.26 3.05 1.57 6.28 1.63 9.45-.04 3.17-.37 6.39-1.63 9.44-.25-3.14-.11-6.31-.09-9.45l.09-9.44zm2.39-4.72c1.52 4.64 1.94 9.42 2.01 14.17-.07 4.75-.48 9.53-2.01 14.16.01-4.63.27-9.27.29-13.9.02-4.81-.26-9.61-.29-14.42h0z" fill="#42ade2"/><path d="M9.11 27.24H4.56l8.16-7.63h4.55l-8.16 7.63z" fill="#333"/><path d="M3.55 11.9l-2.39.12S0 13.83 0 15.76s1.16 3.74 1.16 3.74c.7 0 1.51.04 2.39.12-.33-.67-.98-2.22-.98-3.85s.65-3.18.98-3.85v-.02z" fill="#b0bdc6"/><path d="M22.64.55S13.65 10.7 6 11.65c-.4.93-.95 2.49-.95 4.11s.55 3.19.96 4.11c7.65.94 16.62 11.07 16.62 11.07L22.65.55h0z" fill="#ed4c5c"/><path d="M6 11.64l-2.45.26c-.33.68-.98 2.22-.98 3.85s.65 3.18.98 3.85l2.44.26c-.4-.93-.96-2.48-.96-4.11s.55-3.18.95-4.11H6z" fill="#333"/><ellipse cx="23.56" cy="15.74" rx="3.54" ry="15.74" fill="#aa1d39"/><path d="M23.56,31.5c-1.95,0-3.53-7.05-3.53-15.74,2.99-2.23,6.95,2.74,6.95,2.74-6.18,3.38-3.41,13-3.41,13h-.01Z" fill="#5b0617"/><path d="M20.16 11.53s-.14 1.48-.14 4.21l.14 4.21 6.93-1.48v-5.46l-6.93-1.48h0z" fill="#333"/><path d="M20.08 12.86l-.06 2.88.06 2.88 7.01-1.01v-3.74l-7.01-1.02h0z" fill="#4b4d4f"/><ellipse cx="27.09" cy="15.74" rx=".88" ry="2.73" fill="#ed4c5c"/><path d="M4.56 13.63h4.55v13.61H4.56z" fill="#898a90"/><path d="M6.83 14.97c.51 0 .93.5.93 1.11s-.42 1.11-.93 1.11-.93-.5-.93-1.11.42-1.11.93-1.11z" fill="#fff"/></svg>